PathFileType	4	(X/Y/Z)	 s11c0201.trc
DataRate	CameraRate	NumFrames	NumMarkers	Units	OrigDataRate	OrigDataStartFrame	OrigNumFrames
200	200	6	48	mm	200	751	2000
Frame#	Time	racr			lacr			c7			jug			rlel			rdr			llel			ldr			s2			lic			ric			lasi			rasi			rpsi			lpsi			rgt			lgt			rth1			rth2			rth3			rth4			rlfc			rmfc			rsh1			rsh2			rsh3			rsh4			rlmal			rcal			rtoe			rmt5			lth1			lth2			lth4			lth3			llfc			lmfc			llmal			lcal			lmt5			lsh1			lsh2			lsh3			lsh4			ltoe			SBIKE			LBIKE			RBIKE			
		X1	Y1	Z1	X2	Y2	Z2	X3	Y3	Z3	X4	Y4	Z4	X5	Y5	Z5	X6	Y6	Z6	X7	Y7	Z7	X8	Y8	Z8	X9	Y9	Z9	X10	Y10	Z10	X11	Y11	Z11	X12	Y12	Z12	X13	Y13	Z13	X14	Y14	Z14	X15	Y15	Z15	X16	Y16	Z16	X17	Y17	Z17	X18	Y18	Z18	X19	Y19	Z19	X20	Y20	Z20	X21	Y21	Z21	X22	Y22	Z22	X23	Y23	Z23	X24	Y24	Z24	X25	Y25	Z25	X26	Y26	Z26	X27	Y27	Z27	X28	Y28	Z28	X29	Y29	Z29	X30	Y30	Z30	X31	Y31	Z31	X32	Y32	Z32	X33	Y33	Z33	X34	Y34	Z34	X35	Y35	Z35	X36	Y36	Z36	X37	Y37	Z37	X38	Y38	Z38	X39	Y39	Z39	X40	Y40	Z40	X41	Y41	Z41	X42	Y42	Z42	X43	Y43	Z43	X44	Y44	Z44	X45	Y45	Z45	X46	Y46	Z46	X47	Y47	Z47	X48	Y48	Z48	
751	3.7550	527.878268	1297.707734	-71.677759	508.986728	1359.345451	-380.428404	475.287734	1434.914732	-211.516428	459.139616	1251.802831	-249.710249	528.417132	1060.821771	86.363786	752.979229	968.649384	-28.024645	507.220501	1117.318583	-566.672557	753.416354	964.842717	-443.151476	-102.913178	1212.587167	-244.487872	100.869670	1234.726469	-456.798496	118.461914	1207.487644	-46.679411	141.406114	1160.894883	-435.257971	139.326562	1158.324260	-100.001712	-57.927957	1277.224647	-191.081731	-61.364430	1272.576561	-285.841513	84.588543	1089.231349	-32.050223	25.260590	1079.443395	-458.232655	241.683065	1089.669280	-3.923721	300.715259	1031.166363	-39.820955	372.350841	983.381466	-46.833878	311.028697	1064.919634	-52.695006	471.857092	932.713465	-64.980438	475.441239	911.669436	-194.024546	376.536268	805.333655	-58.578296	335.754140	730.082685	-80.910875	263.438201	681.990854	-84.825463	358.311473	716.589924	-111.010172	163.147614	599.046626	-98.298160	113.464884	633.875202	-150.309095	263.588197	389.177428	-140.076975	199.736857	430.060459	-73.208333	113.582545	949.719503	-470.461060	171.084246	887.198925	-461.476010	203.929882	903.307940	-455.769095	189.761011	799.732015	-450.265112	253.126772	675.257251	-419.543857	247.553685	664.663631	-289.848433	195.748890	241.775749	-415.075476	151.093355	181.288185	-380.022839	361.051897	189.535974	-441.966177	231.875867	551.998384	-443.588872	245.873784	468.274560	-429.827536	217.420322	384.682664	-429.624265	274.370295	468.700661	-404.122123	442.911199	241.202472	-370.311899	-204.861673	957.488104	-262.768330	1.325859	82.146868	-461.026601	-15.187481	80.982580	-62.523972	
752	3.7600	527.243649	1298.044209	-67.253592	509.773559	1359.871930	-377.584650	475.131045	1435.334608	-208.179196	459.367188	1252.134925	-246.066324	525.901137	1059.383498	89.183983	752.762445	968.688026	-27.252621	507.852261	1118.806040	-565.992870	753.696102	965.155489	-444.295393	-102.513379	1213.520208	-249.316141	105.138866	1234.735641	-458.111796	115.801524	1209.401689	-47.550335	144.428531	1161.539804	-435.911290	137.366534	1160.874699	-101.736278	-57.664809	1277.935032	-195.778329	-59.531510	1273.170052	-290.603282	82.818592	1092.640750	-33.866254	27.116798	1079.202939	-460.224081	240.695908	1095.089968	-3.951160	300.293435	1037.409778	-40.275861	372.752388	990.862193	-46.986938	310.043095	1071.214422	-53.154066	473.579609	942.750152	-63.714325	479.388242	921.731988	-194.776047	380.380857	815.275294	-58.341389	339.918047	739.786162	-80.396335	267.662755	691.518034	-84.456844	362.780084	725.946678	-110.278347	168.184279	606.078512	-98.189801	117.543339	639.638222	-150.057808	273.572330	398.744312	-139.485161	208.068780	437.381659	-73.146420	111.272777	947.797710	-471.880872	167.391322	883.922995	-463.410673	200.688439	899.316021	-457.666801	184.260262	796.182999	-451.747765	244.982613	670.872619	-420.501693	239.203672	661.456863	-290.206664	186.635791	237.284333	-414.349419	142.273470	177.470958	-379.808215	352.265859	183.415988	-442.048722	223.021560	547.548889	-444.386208	236.793194	463.741147	-430.711870	207.962217	380.281369	-429.973479	265.624059	464.092245	-405.303811	434.851839	234.105970	-370.635573	-204.894692	957.551382	-262.854254	1.311192	82.128828	-461.038115	-15.182197	80.990970	-62.522057	
753	3.7650	526.592391	1298.253287	-62.921549	510.634334	1360.277436	-374.733933	475.008452	1435.633306	-205.029639	459.630438	1252.338348	-242.567682	523.699472	1057.970594	91.768548	752.640372	968.893100	-26.542237	508.525951	1120.372563	-565.799218	753.986009	965.371488	-445.265211	-101.983351	1214.701256	-253.883716	109.262141	1234.662479	-459.370474	112.973282	1211.213961	-48.503634	147.256973	1161.894181	-436.172762	135.811844	1162.874109	-104.245814	-59.897502	1279.850696	-199.614878	-58.140981	1273.914518	-294.898088	81.008783	1096.019499	-35.648730	28.483191	1078.624419	-461.573258	238.712813	1100.642509	-5.488865	299.660648	1043.386757	-40.864416	372.955128	997.882072	-47.106178	309.171807	1077.383615	-53.390369	473.937064	952.031137	-62.301397	482.933628	931.343375	-195.271065	383.948555	825.177238	-58.157556	343.968493	749.414605	-79.694981	271.832634	700.796443	-83.978946	367.256907	734.913442	-109.252765	173.229621	612.447204	-98.117042	121.957848	644.557905	-149.612741	283.509036	407.294291	-139.704485	217.169841	444.559387	-72.903341	109.342233	946.405993	-473.554048	164.142622	881.194982	-465.366655	197.755136	895.888842	-459.537875	178.941791	793.145511	-453.624823	237.445141	667.093643	-421.663932	231.309742	659.526688	-290.995391	177.257413	233.454891	-413.494827	133.241458	174.636952	-379.526743	343.134885	177.773485	-442.198995	214.872659	543.918593	-445.388282	228.124882	460.104779	-431.674220	198.684270	376.881163	-430.560512	257.242272	460.335753	-406.536145	426.652384	227.362375	-371.150027	-205.001917	957.549974	-263.088436	1.304313	82.119801	-461.074604	-15.162341	81.018796	-62.563309	
754	3.7700	525.914088	1298.410712	-58.702591	511.597839	1360.514930	-372.072262	475.079885	1435.747737	-202.114810	459.915222	1252.336549	-239.122699	521.995232	1056.590542	94.064931	752.604421	969.120024	-25.840288	509.395458	1121.992054	-566.010499	754.188262	965.435215	-445.847860	-101.093235	1215.446148	-258.565603	113.419471	1234.294222	-460.181828	110.100764	1212.946587	-49.660781	149.896302	1161.913753	-435.990637	133.849349	1165.273513	-105.547271	-61.685017	1281.243235	-201.940884	-56.702843	1274.936355	-299.087400	79.136226	1099.395359	-37.246242	30.165128	1078.439112	-463.282055	236.817094	1105.853817	-6.491145	299.010587	1048.996352	-41.377743	373.015216	1004.760399	-47.085777	308.136869	1083.366456	-53.478466	475.748105	961.565764	-62.223049	485.951847	940.722349	-195.320111	387.336565	834.855357	-57.934908	347.753473	758.786088	-78.726191	276.059672	709.697595	-83.480989	371.580447	744.243189	-107.212594	178.606849	618.109715	-97.938316	126.454745	648.663002	-149.363661	294.046696	415.623678	-139.640788	226.617611	451.152280	-72.664100	107.680227	945.363919	-475.361697	161.114182	879.003577	-467.577750	195.080743	893.049352	-461.594519	174.049493	790.657507	-455.623369	230.561829	663.984647	-422.895635	225.971672	657.296975	-292.509174	167.859493	230.829133	-412.761458	124.025160	172.635932	-379.416751	333.877583	172.654768	-442.529871	207.123487	541.146097	-446.529966	219.870608	457.206474	-432.687577	189.914545	374.177707	-431.164911	249.279701	457.197834	-407.923237	418.163219	221.202544	-371.836762	-204.601634	957.294854	-263.486209	1.293902	82.139840	-461.135835	-15.125072	81.064138	-62.678765	
755	3.7750	525.175149	1298.432636	-54.772260	512.584437	1360.376334	-369.402081	475.212116	1435.660036	-199.521697	460.121595	1252.128090	-235.910079	520.251908	1055.523701	96.552842	752.617028	969.361172	-25.138767	510.281393	1123.806734	-566.634016	754.464506	965.233462	-446.050904	-104.324753	1218.162928	-260.849566	117.457364	1233.947581	-460.841015	107.221672	1214.587525	-50.941587	152.609332	1161.775725	-435.876475	131.802349	1167.765616	-106.622469	-59.489841	1282.154881	-209.102441	-55.480893	1275.913025	-302.896459	77.397676	1102.822256	-38.556563	31.526675	1078.307986	-464.699159	234.630039	1110.824422	-7.475060	298.196499	1054.336957	-41.825627	373.830968	1010.409455	-48.605698	306.888492	1089.158812	-53.402366	476.814050	970.414946	-61.890672	488.247428	949.683143	-194.995442	390.584796	844.180158	-57.549248	351.635569	767.556854	-77.908300	280.244513	718.191713	-82.789277	376.156140	752.749833	-105.439647	184.155090	622.812010	-97.749408	131.155307	651.938890	-149.031954	304.785794	423.365502	-139.461378	236.463717	457.136026	-72.353994	106.225616	944.741657	-477.384703	158.366302	877.296144	-469.795990	192.658224	890.756783	-463.754677	169.505771	788.742672	-457.549407	224.279409	661.481106	-424.414983	221.699085	655.746919	-293.226176	158.628698	229.142935	-412.597878	114.597152	171.552429	-379.534261	324.340858	168.172750	-442.728364	199.680574	539.077812	-447.960282	212.051037	454.968845	-433.778363	181.532418	372.177559	-431.843266	241.730378	454.733143	-409.390537	409.486515	215.413963	-372.284181	-204.083028	957.114055	-263.522523	1.282217	82.145804	-461.171948	-15.129950	81.104334	-62.727888	
756	3.7800	524.366038	1298.539915	-51.094545	513.616525	1359.963084	-366.860111	475.613754	1435.329993	-197.335330	460.288627	1251.636255	-232.749676	518.827636	1054.767054	98.808048	752.783102	969.667344	-24.451608	511.476504	1125.739324	-567.616232	754.831288	964.838222	-445.808915	-101.690464	1218.309411	-265.569623	121.516705	1233.515977	-461.308703	104.372695	1216.154987	-52.141993	155.112459	1161.282117	-435.407496	129.705951	1170.304287	-107.548769	-61.910498	1284.321816	-210.717953	-54.390406	1277.076913	-306.341987	75.859001	1106.055817	-39.566321	32.931833	1078.480944	-466.062199	232.443403	1115.019050	-9.536876	297.388075	1059.432565	-42.142488	373.572696	1016.522827	-48.696350	305.954326	1094.072703	-53.779331	477.580483	978.867451	-61.545578	490.282181	958.419179	-195.155369	393.636243	853.184406	-57.312874	355.459037	776.057265	-76.968564	284.594871	726.020217	-82.169789	380.572629	760.954018	-103.893857	190.050735	626.680242	-97.602861	135.711534	654.105039	-148.803581	316.070612	430.584522	-139.332850	246.550082	462.461040	-72.048992	104.925622	944.466957	-479.263711	155.847230	876.120372	-471.880699	190.337934	888.924068	-465.761261	165.429298	787.368656	-459.361833	218.588576	659.729243	-426.219509	218.300446	654.416183	-294.883247	149.551696	228.339009	-412.838415	104.908297	171.315759	-379.769884	314.632730	164.379462	-443.001598	192.991441	537.731026	-449.324633	204.693726	453.463697	-435.061043	173.404594	371.012148	-432.535437	234.688244	452.971048	-410.888401	400.590023	210.213072	-372.655198	-204.096344	957.128977	-263.677944	1.281225	82.166249	-461.198176	-15.136929	81.190263	-62.758563	
